<svg width="154" height="54" viewBox="0 0 154 54" fill="none" xmlns="http://www.w3.org/2000/svg">
<path d="M0 0C7.45584 0 13.507 6.04416 13.507 13.5H0V0Z" fill="#7661AA"/>
<path d="M13.5078 13.5C20.9637 13.5 27.0148 19.5442 27.0148 27H13.5078V13.5Z" fill="#69C5DF"/>
<path d="M0 13.5H13.507V27H0V13.5Z" fill="#7661AA"/>
<path d="M0 27H13.507V40.5H0V27Z" fill="#7661AA"/>
<path d="M0 40.5H13.507V54C6.05118 54 0 47.9558 0 40.5Z" fill="#7661AA"/>
<path d="M13.5078 27H27.0148V40.5C19.559 40.5 13.5078 34.4558 13.5078 27Z" fill="#7661AA"/>
<path d="M37.5932 40.5859C37.3351 40.5859 37.1157 40.5085 36.9351 40.3538C36.7544 40.1732 36.6641 39.941 36.6641 39.6573V14.4674C36.6641 14.1836 36.7544 13.9514 36.9351 13.7709C37.1157 13.5903 37.3351 13.5 37.5932 13.5H41.1162C41.4001 13.5 41.6195 13.5903 41.7744 13.7709C41.955 13.9514 42.0454 14.1836 42.0454 14.4674V24.4505H53.4661V14.4674C53.4661 14.1836 53.5564 13.9514 53.7371 13.7709C53.9177 13.5903 54.1371 13.5 54.3952 13.5H57.8795C58.1634 13.5 58.3957 13.5903 58.5764 13.7709C58.757 13.9514 58.8474 14.1836 58.8474 14.4674V39.6573C58.8474 39.9152 58.757 40.1345 58.5764 40.3151C58.3957 40.4956 58.1634 40.5859 57.8795 40.5859H54.3952C54.1371 40.5859 53.9177 40.4956 53.7371 40.3151C53.5564 40.1345 53.4661 39.9152 53.4661 39.6573V29.2872H42.0454V39.6573C42.0454 39.9152 41.955 40.1345 41.7744 40.3151C41.6195 40.4956 41.4001 40.5859 41.1162 40.5859H37.5932Z" fill="#7661AA"/>
<path d="M68.3136 40.9729C66.9715 40.9729 65.7585 40.7149 64.6745 40.199C63.5905 39.6573 62.7259 38.9479 62.0806 38.0708C61.4612 37.1679 61.1515 36.1619 61.1515 35.0527C61.1515 33.2469 61.8741 31.8153 63.3195 30.7576C64.7906 29.6742 66.7263 28.9519 69.1266 28.5907L74.4305 27.8169V27.0043C74.4305 25.9208 74.1595 25.0825 73.6175 24.4892C73.0755 23.8958 72.1463 23.5992 70.8301 23.5992C69.9009 23.5992 69.1395 23.7927 68.5459 24.1796C67.9781 24.5407 67.5522 25.0309 67.2683 25.65C67.0619 25.9853 66.7651 26.153 66.3779 26.153H63.3195C63.0356 26.153 62.8162 26.0756 62.6613 25.9208C62.5323 25.7661 62.4678 25.5597 62.4678 25.3017C62.4936 24.889 62.6613 24.386 62.971 23.7927C63.2808 23.1993 63.7711 22.6318 64.4422 22.0901C65.1132 21.5226 65.9779 21.0454 67.036 20.6584C68.0942 20.2715 69.3718 20.078 70.8688 20.078C72.4948 20.078 73.8627 20.2844 74.9725 20.6971C76.1081 21.0841 77.0114 21.6129 77.6825 22.2836C78.3535 22.9543 78.8439 23.7411 79.1536 24.6439C79.4633 25.5468 79.6182 26.5012 79.6182 27.5073V39.6573C79.6182 39.9152 79.5279 40.1345 79.3472 40.3151C79.1665 40.4956 78.9472 40.5859 78.6891 40.5859H75.5532C75.2693 40.5859 75.037 40.4956 74.8563 40.3151C74.7015 40.1345 74.6241 39.9152 74.6241 39.6573V38.1482C74.2885 38.6383 73.8369 39.1027 73.2691 39.5412C72.7012 39.9539 72.0044 40.3022 71.1785 40.5859C70.3784 40.8439 69.4234 40.9729 68.3136 40.9729ZM69.6299 37.2969C70.5332 37.2969 71.3462 37.1035 72.0689 36.7165C72.8174 36.3296 73.3981 35.7363 73.8111 34.9366C74.2498 34.1111 74.4692 33.0793 74.4692 31.841V31.0285L70.5978 31.6476C69.075 31.8797 67.9394 32.2538 67.1909 32.7697C66.4424 33.2856 66.0682 33.9176 66.0682 34.6657C66.0682 35.2332 66.236 35.7234 66.5715 36.1361C66.9328 36.523 67.3845 36.8197 67.9265 37.0261C68.4685 37.2066 69.0363 37.2969 69.6299 37.2969Z" fill="#7661AA"/>
<path d="M83.5783 40.5859C83.3202 40.5859 83.1008 40.4956 82.9201 40.3151C82.7394 40.1345 82.6491 39.9152 82.6491 39.6573V21.3936C82.6491 21.1357 82.7394 20.9164 82.9201 20.7358C83.1008 20.5552 83.3202 20.465 83.5783 20.465H86.7915C87.0754 20.465 87.2948 20.5552 87.4497 20.7358C87.6303 20.9164 87.7207 21.1357 87.7207 21.3936V39.6573C87.7207 39.9152 87.6303 40.1345 87.4497 40.3151C87.2948 40.4956 87.0754 40.5859 86.7915 40.5859H83.5783Z" fill="#7661AA"/>
<path d="M83.4233 18.1433C83.1394 18.1433 82.9071 18.0659 82.7264 17.9111C82.5716 17.7306 82.4941 17.4984 82.4941 17.2146V14.4287C82.4941 14.1707 82.5716 13.9514 82.7264 13.7709C82.9071 13.5903 83.1394 13.5 83.4233 13.5H86.9463C87.2302 13.5 87.4625 13.5903 87.6432 13.7709C87.8238 13.9514 87.9142 14.1707 87.9142 14.4287V17.2146C87.9142 17.4984 87.8238 17.7306 87.6432 17.9111C87.4625 18.0659 87.2302 18.1433 86.9463 18.1433H83.4233Z" fill="#69C5DF"/>
<path d="M92.6831 40.5859C92.425 40.5859 92.2056 40.4956 92.0249 40.3151C91.8442 40.1345 91.7539 39.9152 91.7539 39.6573V14.4674C91.7539 14.1836 91.8442 13.9514 92.0249 13.7709C92.2056 13.5903 92.425 13.5 92.6831 13.5H103.058C105.072 13.5 106.827 13.8225 108.324 14.4674C109.821 15.0865 110.982 16.0409 111.808 17.3307C112.634 18.5947 113.047 20.1812 113.047 22.0901C113.047 24.0248 112.634 25.6242 111.808 26.8882C110.982 28.1264 109.821 29.0551 108.324 29.6742C106.827 30.2933 105.072 30.6028 103.058 30.6028H97.2901V39.6573C97.2901 39.9152 97.1997 40.1345 97.0191 40.3151C96.8642 40.4956 96.6448 40.5859 96.3609 40.5859H92.6831ZM97.2126 26.3078H102.865C104.362 26.3078 105.51 25.9595 106.31 25.263C107.111 24.5407 107.511 23.4831 107.511 22.0901C107.511 20.8003 107.136 19.7685 106.388 18.9946C105.639 18.1949 104.465 17.7951 102.865 17.7951H97.2126V26.3078Z" fill="#7661AA"/>
<path d="M120.303 40.9729C118.961 40.9729 117.748 40.7149 116.664 40.199C115.58 39.6573 114.716 38.9479 114.07 38.0708C113.451 37.1679 113.141 36.1619 113.141 35.0527C113.141 33.2469 113.864 31.8153 115.309 30.7576C116.78 29.6742 118.716 28.9519 121.116 28.5907L126.42 27.8169V27.0043C126.42 25.9208 126.149 25.0825 125.607 24.4892C125.065 23.8958 124.136 23.5992 122.82 23.5992C121.891 23.5992 121.129 23.7927 120.536 24.1796C119.968 24.5407 119.542 25.0309 119.258 25.65C119.052 25.9853 118.755 26.153 118.368 26.153H115.309C115.025 26.153 114.806 26.0756 114.651 25.9208C114.522 25.7661 114.457 25.5597 114.457 25.3017C114.483 24.889 114.651 24.386 114.961 23.7927C115.27 23.1993 115.761 22.6318 116.432 22.0901C117.103 21.5226 117.968 21.0454 119.026 20.6584C120.084 20.2715 121.361 20.078 122.858 20.078C124.484 20.078 125.852 20.2844 126.962 20.6971C128.098 21.0841 129.001 21.6129 129.672 22.2836C130.343 22.9543 130.834 23.7411 131.143 24.6439C131.453 25.5468 131.608 26.5012 131.608 27.5073V39.6573C131.608 39.9152 131.518 40.1345 131.337 40.3151C131.156 40.4956 130.937 40.5859 130.679 40.5859H127.543C127.259 40.5859 127.027 40.4956 126.846 40.3151C126.691 40.1345 126.614 39.9152 126.614 39.6573V38.1482C126.278 38.6383 125.827 39.1027 125.259 39.5412C124.691 39.9539 123.994 40.3022 123.168 40.5859C122.368 40.8439 121.413 40.9729 120.303 40.9729ZM121.62 37.2969C122.523 37.2969 123.336 37.1035 124.059 36.7165C124.807 36.3296 125.388 35.7363 125.801 34.9366C126.239 34.1111 126.459 33.0793 126.459 31.841V31.0285L122.587 31.6476C121.065 31.8797 119.929 32.2538 119.181 32.7697C118.432 33.2856 118.058 33.9176 118.058 34.6657C118.058 35.2332 118.226 35.7234 118.561 36.1361C118.922 36.523 119.374 36.8197 119.916 37.0261C120.458 37.2066 121.026 37.2969 121.62 37.2969Z" fill="#7661AA"/>
<path d="M137.749 47.9378C137.542 47.9378 137.361 47.8604 137.207 47.7057C137.052 47.5509 136.974 47.3703 136.974 47.1639C136.974 47.0608 136.974 46.9576 136.974 46.8544C137 46.777 137.052 46.6738 137.129 46.5448L140.149 39.3864L132.716 21.8579C132.613 21.6 132.561 21.4194 132.561 21.3162C132.587 21.0841 132.677 20.8906 132.832 20.7358C132.987 20.5552 133.18 20.465 133.413 20.465H136.548C136.858 20.465 137.09 20.5423 137.245 20.6971C137.4 20.8519 137.516 21.0196 137.594 21.2001L142.743 33.8531L148.047 21.2001C148.124 20.9938 148.24 20.8261 148.395 20.6971C148.55 20.5423 148.782 20.465 149.092 20.465H152.189C152.396 20.465 152.576 20.5423 152.731 20.6971C152.912 20.8519 153.002 21.0325 153.002 21.2388C153.002 21.3936 152.95 21.6 152.847 21.8579L141.891 47.2026C141.788 47.409 141.659 47.5767 141.504 47.7057C141.349 47.8604 141.117 47.9378 140.807 47.9378H137.749Z" fill="#7661AA"/>
</svg>
